<svg style="display:none" xmlns="http://www.w3.org/2000/svg">
<symbol id="home" viewBox="0 0 39 37" fill="none">
	<path
      d="M15.4 33.2h8.4V21.1h-8.4v12.1zm6.8-1.5H17v-9.2h5.3v9.2z"
      fill="#81B3D2"
    /><path
      d="M37.9 20l1.1-1-5.2-5V.1h-7.2v6.7L19.5 0 0 19l1.1 1 4-3.9v19.3h-2v1.4h33.4v-1.4h-2.7V16l4.1 4zM28.1 1.7h4.2v10.8l-4.2-4V1.6zm4.2 33.6H6.7V14.6L19.5 2.1l12.8 12.5v20.7z"
      fill="#81B3D2"
    /><path
      d="M15.6 13.8a4 4 0 004 4 4 4 0 004-4 4 4 0 00-4-3.9 4 4 0 00-4 4zm4-2.5c1.4 0 2.6 1.1 2.6 2.5s-1.2 2.6-2.6 2.6a2.6 2.6 0 01-2.6-2.6c0-1.3 1.2-2.5 2.6-2.5zM10.4 21H8.8v2h1.6v-2zM13.5 21h-1.6v2h1.6v-2zM10.4 24.1H8.8v2h1.6v-2zM13.5 24.1h-1.6v2h1.6v-2zM27 21h-1.5v2H27v-2zM30.2 21h-1.6v2h1.6v-2zM27 24.1h-1.5v2H27v-2zM30.2 24.1h-1.6v2h1.6v-2z"
      fill="#81B3D2"
    />
</symbol>
<symbol id="souvenir" viewBox="0 0 32 38" fill="none">
	<path
      d="M30.6 11.2H18.1c6.9-3.4 7.5-5.6 7.2-6.8-.6-2-2.8-3.5-5-2.7-2.8 1-3.5 5.2-4.3 8.2-1-3-1.9-6.9-4-8.9a3.7 3.7 0 00-3-1c-2 .2-4.9 2.7-3.7 5.5 1.2 2.7 4.9 4.4 7.3 5.8H1.4c-.8 0-1.4.6-1.4 1.4v5.6c0 .9.7 1.5 1.4 1.5h.2V38h29V19.8c.8 0 1.4-.7 1.4-1.5v-5.6c0-.8-.7-1.5-1.4-1.5zM21.2 3c1.1-.1 2.5.7 2.7 1.7.2 1.3-1.7 2.6-2.6 3.2-1.2.8-2.5 1.3-3.6 2 .4-1.9 1.2-6.5 3.5-6.9zM9.8 8C8.6 7.2 6.5 5.7 6.6 4 6.6 2.2 9.4.7 11 2c1.9 1.8 2.8 5.7 3.5 8.4C13 9.6 11.4 9 9.8 7.9zm3 28.6H3V19.8h9.7v16.7zm0-18.3H1.4v-5.5h11.2v5.5zm5 18.3h-3.6V12.7h3.6v23.8zm11.2 0h-9.6V19.8H29v16.7H29zm1.5-18.3H19.4v-5.5h11v5.5z"
      fill="#81B3D2"
    />
</symbol>
<symbol id="food" viewBox="0 0 40 34" fill="none">
	<path
      d="M37.7 23.3H2.3c-1.3 0-2.3 1-2.3 2.2v1.8c0 1.1 1 2 2.3 2h.5v.6c0 2.8 2.3 5 5.2 5h24c3 0 5.2-2.3 5.2-5v-.5h.5c1.3 0 2.3-1 2.3-2.2v-1.8c0-1-1-2.1-2.3-2.1zm-2 6.6c0 2-1.6 3.5-3.6 3.5H7.9c-2 0-3.6-1.6-3.6-3.5v-.5h31.4v.5zm2.7-2.7c0 .4-.3.7-.7.7H2.3a.7.7 0 01-.7-.7v-1.8c0-.3.3-.6.7-.6h35.5c.4 0 .7.3.7.7v1.7zM8.5 19.2l2.8 2 3-2 2.8 2 2.9-2 2.8 2 3-2 2.8 2 2.9-2 2.9 2 3.3-2.4-.9-1.2-2.4 1.7-2.9-2-2.9 2-2.9-2-2.9 2-2.8-2-2.9 2-2.9-2-2.9 2-2.8-2-2.9 2-2.4-1.7-1 1.2 3.4 2.4 2.9-2zM37.2 15.8v-1.6C37 6.3 29.2 0 20 0 10.7 0 3.1 6.3 2.7 14.2v1.6h34.5zM20 1.5c8.4 0 15.3 5.7 15.6 12.7H4.3c.4-7 7.3-12.7 15.7-12.7z"
      fill="#81B3D2"
    /><path
      d="M20 8.6c.6 0 1-.4 1-1s-.4-1-1-1a1 1 0 00-1 1c0 .6.4 1 1 1zM15.8 6.1c.6 0 1-.4 1-1 0-.5-.4-1-1-1a1 1 0 00-1 1c0 .6.4 1 1 1zM24.2 6.1c.6 0 1-.4 1-1 0-.5-.4-1-1-1a1 1 0 00-1 1c0 .6.4 1 1 1z"
      fill="#81B3D2"
    />
</symbol>
<symbol id="twitter" viewBox="0 0 17 15" fill="none">
	<path
      d="M11.3.2c1.7-.5 3.1.2 3.7 1l2.1-.6c0 .8-.5 1.5-.9 1.7.7.2 1.3-.5 1.3-.5a3 3 0 01-1.6 2c-.2 6.6-3.3 11-10.4 10.8H5c-.4 0-4.3-.4-5-1.8 2.3.2 4-.4 4.8-1.1-1-.3-2.8-.5-3.1-3 .4.2.6.3 1.3.2C1.8 8 .4 7.4.5 5.2c.3.3 1.1.5 1.4.5-.7-.2-2-3.3-.9-4.8 1.9 1.8 3.8 3.5 7.4 3.7C8.5 2.3 9.5.8 11.3.2z"
      fill="#fff"
    />
</symbol>
<symbol id="facebook" viewBox="0 0 9 19" fill="none">
	<path
      d="M6.3 3.4h2.4V0H5.8C2.7.2 1.5 2.4 1.9 6.1H0v3.5h2v9.3h3.8V9.6h2.9V6.1H5.8c0-1 0-2.4.5-2.7z"
      fill="#fff"
    />
</symbol>
<symbol id="youtube" viewBox="0 0 20 14" fill="none">
	<path
      d="M17.1 0H2.8A2.9 2.9 0 000 2.8v8.3C0 12.7 1.3 14 2.8 14h14.3c1.6 0 2.8-1.3 2.8-2.8V2.8C20 1.3 18.7 0 17.1 0zM7 10.4V3.6L13.8 7 7 10.4z"
      fill="#fff"
    />
</symbol>
<symbol id="phone" viewBox="0 0 18 18" fill="none">
	<path
      d="M3.6 7.8C5 10.6 7.4 12.9 10.2 14.4L12.4 12.2C12.7 11.9 13.1 11.8 13.4 12C14.5 12.4 15.7 12.6 17 12.6C17.6 12.6 18 13 18 13.6V17C18 17.6 17.6 18 17 18C7.6 18 0 10.4 0 1C0 0.4 0.4 0 1 0H4.5C5.1 0 5.5 0.4 5.5 1C5.5 2.2 5.7 3.4 6.1 4.6C6.2 4.9 6.1 5.3 5.9 5.6L3.6 7.8Z"
      fill="#010101"
    />
</symbol>
<symbol id="email" viewBox="0 0 18 18" fill="none">
	<path
      d="M8 8C7.7 8 7.5 7.9 7 7.7L0 4V11C0 11.5 0.5 12 1 12H15C15.5 12 16 11.5 16 11V4L9 7.7C8.5 7.9 8.3 8 8 8ZM15 0H1C0.5 0 0 0.5 0 1V1.8L8 6L16 1.8V1C16 0.5 15.5 0 15 0Z"
      fill="black"
    />
</symbol>
<symbol id="like" viewBox="0 0 23 21">
	<path
      d="M13 3.8l-.7 3-.6 2.6h9.1v2.2l-3 7.3H8.4V8.4L13 3.8zM2 10.5v8.4-8.4zM13.9 0L6.9 7c-.4.2-.6.8-.6 1.4v10.5c0 1.2 1 2.1 2 2.1h9.5a2 2 0 001.9-1.3l3-7.4c.2-.2.2-.5.2-.8v-2h.1c0-1.2-1-2.2-2-2.2h-6.7l1-4.8v-.3c0-.4-.1-.8-.4-1.2l-1.1-1zM4.2 8.4H0V21h4.2V8.4z"
    />
</symbol>
<symbol id="raplay" viewBox="0 0 23 21">
	<path
      d="M8 4V0L3 5L8 10V6C11.3 6 14 8.7 14 12C14 15.3 11.3 18 8 18C4.7 18 2 15.3 2 12H0C0 16.4 3.6 20 8 20C12.4 20 16 16.4 16 12C16 7.6 12.4 4 8 4Z"
    />
</symbol>
<symbol class="subtitr" id="subtitr" viewBox="0 0 32 20">
	<path
      d="M29 0H3C1.3 0 0 1.3 0 3V17C0 18.7 1.3 20 3 20H29C30.7 20 32 18.7 32 17V3C32 1.3 30.7 0 29 0ZM14.4 15.9C13.9 16 13.3 16 12.7 16C12 16 11.3 15.9 10.7 15.7C10.1 15.5 9.5 15.1 9.1 14.7C8.7 14.3 8.3 13.6 8 12.8C7.7 12 7.6 11.1 7.6 10C7.6 8.9 7.8 7.9 8.1 7.1C8.4 6.3 8.8 5.7 9.3 5.2C9.8 4.7 10.4 4.4 11 4.2C11.5 4.1 12.2 4 12.8 4C13.5 4 14 4 14.5 4.1C15 4.2 15.3 4.3 15.6 4.4L15.2 6.3C14.9 6.2 14.6 6.1 14.3 6C13.9 6 13.5 6 13 6C12.1 6 11.4 6.3 10.8 7C10.2 7.7 10 8.7 10 10C10 10.6 10.1 11.1 10.2 11.6C10.3 12.1 10.5 12.5 10.8 12.9C11.1 13.2 11.4 13.5 11.8 13.7C12.2 13.9 12.7 14 13.2 14C13.7 14 14.1 14 14.5 13.9C14.8 13.8 15.1 13.7 15.4 13.5L15.9 15.3C15.4 15.6 14.9 15.7 14.4 15.9ZM23.1 15.9C22.6 16 22 16 21.4 16C20.7 16 20 15.9 19.4 15.7C18.8 15.5 18.2 15.1 17.8 14.7C17.3 14.2 16.9 13.6 16.7 12.8C16.4 12 16.3 11.1 16.3 10C16.3 8.9 16.5 7.9 16.8 7.1C17.1 6.3 17.5 5.7 18 5.2C18.5 4.7 19.1 4.4 19.7 4.2C20.2 4.1 20.9 4 21.5 4C22.2 4 22.7 4 23.2 4.1C23.7 4.2 24 4.3 24.3 4.4L23.9 6.3C23.6 6.2 23.3 6.1 23 6C22.6 6 22.2 6 21.7 6C20.8 6 20.1 6.3 19.5 7C18.9 7.7 18.7 8.7 18.7 10C18.7 10.6 18.8 11.1 18.9 11.6C19 12.1 19.2 12.5 19.5 12.9C19.8 13.2 20.1 13.5 20.5 13.7C20.9 13.9 21.4 14 21.9 14C22.4 14 22.8 14 23.2 13.9C23.5 13.8 23.8 13.7 24.1 13.5L24.6 15.3C24.1 15.6 23.6 15.7 23.1 15.9Z"
    />
</symbol>
<symbol id="full" viewBox="0 0 20 20">
	<path d="M0 0V3V6H3V3H6V0H3H0Z" />
<path d="M3 14H0V17V20H3H6V17H3V14Z" />
<path d="M17 0H14V3H17V6H20V3V0H17Z" />
<path d="M17 17H14V20H17H20V17V14H17V17Z" />
</symbol>
</svg>


